<?xml version="1.0" standalone="no"?>
<!DOCTYPE svg PUBLIC "-//W3C//DTD SVG 20010904//EN" "http://www.w3.org/TR/2001/REC-SVG-20010904/DTD/svg10.dtd">
<svg version="1.0" xmlns="http://www.w3.org/2000/svg"
     width="700.000000pt" height="700.000000pt" viewBox="0 0 700.000000 700.000000"
     preserveAspectRatio="xMidYMid meet">
  <g transform="translate(0.000000,700.000000) scale(0.100000,-0.100000)"
     fill="#000000" stroke="none">
    <path d="M3278 5725 c-2 -2 -28 -6 -58 -9 -115 -13 -268 -61 -396 -124 -94
    -46 -268 -164 -324 -219 -136 -134 -237 -283 -300 -443 -56 -142 -75 -245
    -75 -405 0 -131 9 -206 37 -305 106 -370 397 -677 766 -808 94 -33 214 -57
    317 -62 50 -3 95 -7 102 -9 6 -2 14 -2 17 1 3 3 26 6 50 7 25 1 59 5 75 8
    17 4 39 8 50 9 11 2 40 8 65 14 25 6 52 13 60 15 102 22 297 120 407 204
    275 211 442 503 475 831 29 298 -48 600 -212 832 -79 112 -159 196 -269 283
    -166 131 -346 208 -567 243 -69 11 -211 21 -220 15z"/>
  </g>
</svg>
